# xmcd
#
# Track frame offsets: 
#        150
#        21880
#        41247
#        62407
#        80927
#        102032
#        125305
#        146917
#        170027
#        191685
#        211107
#        230557
#        249172
#        267840
#        284792
#        303180
#        333120
#
# Disc length: 4795 seconds
#
# Revision: 0
# Processed by: cddbd v1.5.2PL0 Copyright (c) Steve Scherf et al.
# Submitted via: ExactAudioCopyFreeDBPlugin 1.0
#
DISCID=f712b911
DTITLE=Folder - The Earth
DYEAR=2003
DGENRE=JPop
TTITLE0=パラシューター
TTITLE1=Share Your Love
TTITLE2=眠れない惑星
TTITLE3=Gone Gone Go Away
TTITLE4=空へ
TTITLE5=ためいき
TTITLE6=Now And Forever
TTITLE7=All Or Nothing
TTITLE8=Close To You
TTITLE9=ジャカジャカジャンケンポン
TTITLE10=Celebrate
TTITLE11=Fire! Fire!
TTITLE12=Do My Love
TTITLE13=ごめんね朝寝坊
TTITLE14=Get You
TTITLE15=Sparkle
TTITLE16=CCCD Data
EXTD=
EXTT0=
EXTT1=
EXTT2=
EXTT3=
EXTT4=
EXTT5=
EXTT6=
EXTT7=
EXTT8=
EXTT9=
EXTT10=
EXTT11=
EXTT12=
EXTT13=
EXTT14=
EXTT15=
EXTT16=
PLAYORDER=
